<mxfile host="app.diagrams.net" agent="Mozilla/5.0 (Macintosh; Intel Mac OS X 10_15_7) AppleWebKit/537.36 (KHTML, like Gecko) Chrome/135.0.0.0 Safari/537.36" version="26.2.14">
  <diagram name="Page-1" id="bf62UW9w0KqtpKUw2RsD">
    <mxGraphModel dx="2225" dy="1258" grid="0" gridSize="10" guides="1" tooltips="1" connect="1" arrows="1" fold="1" page="0" pageScale="1" pageWidth="1500" pageHeight="800" math="0" shadow="0">
      <root>
        <mxCell id="0" />
        <mxCell id="1" parent="0" />
        <mxCell id="b0HriobLCfODPX51pv7s-11" style="edgeStyle=none;curved=1;rounded=0;orthogonalLoop=1;jettySize=auto;html=1;fontSize=12;startSize=8;endSize=8;" edge="1" parent="1" source="b0HriobLCfODPX51pv7s-1" target="b0HriobLCfODPX51pv7s-4">
          <mxGeometry relative="1" as="geometry" />
        </mxCell>
        <mxCell id="b0HriobLCfODPX51pv7s-1" value="&lt;font style=&quot;font-size: 20px;&quot;&gt;&lt;b&gt;CeDeFi&lt;/b&gt;&lt;/font&gt;" style="rounded=1;whiteSpace=wrap;html=1;fillColor=#f5f5f5;gradientColor=#b3b3b3;strokeColor=#666666;" vertex="1" parent="1">
          <mxGeometry x="108" y="-184" width="120" height="60" as="geometry" />
        </mxCell>
        <mxCell id="b0HriobLCfODPX51pv7s-2" value="" style="rounded=1;whiteSpace=wrap;html=1;" vertex="1" parent="1">
          <mxGeometry x="-466.5" y="10" width="1269" height="498" as="geometry" />
        </mxCell>
        <mxCell id="b0HriobLCfODPX51pv7s-3" value="" style="rounded=1;whiteSpace=wrap;html=1;" vertex="1" parent="1">
          <mxGeometry x="-447" y="25.5" width="310" height="467" as="geometry" />
        </mxCell>
        <mxCell id="b0HriobLCfODPX51pv7s-4" value="" style="rounded=1;whiteSpace=wrap;html=1;" vertex="1" parent="1">
          <mxGeometry x="13" y="25.5" width="310" height="467" as="geometry" />
        </mxCell>
        <mxCell id="b0HriobLCfODPX51pv7s-5" value="" style="rounded=1;whiteSpace=wrap;html=1;" vertex="1" parent="1">
          <mxGeometry x="473" y="25.5" width="310" height="467" as="geometry" />
        </mxCell>
        <mxCell id="b0HriobLCfODPX51pv7s-10" style="edgeStyle=none;curved=0;rounded=0;orthogonalLoop=1;jettySize=auto;html=1;entryX=0.526;entryY=0.003;entryDx=0;entryDy=0;entryPerimeter=0;fontSize=12;startSize=8;endSize=8;exitX=1;exitY=0.5;exitDx=0;exitDy=0;" edge="1" parent="1" source="b0HriobLCfODPX51pv7s-1" target="b0HriobLCfODPX51pv7s-5">
          <mxGeometry relative="1" as="geometry">
            <Array as="points">
              <mxPoint x="636" y="-154" />
            </Array>
          </mxGeometry>
        </mxCell>
        <mxCell id="b0HriobLCfODPX51pv7s-8" style="edgeStyle=none;curved=0;rounded=0;orthogonalLoop=1;jettySize=auto;html=1;exitX=0;exitY=0.5;exitDx=0;exitDy=0;entryX=0.5;entryY=0;entryDx=0;entryDy=0;fontSize=12;startSize=8;endSize=8;" edge="1" parent="1" source="b0HriobLCfODPX51pv7s-1" target="b0HriobLCfODPX51pv7s-3">
          <mxGeometry relative="1" as="geometry">
            <Array as="points">
              <mxPoint x="-290" y="-154" />
            </Array>
          </mxGeometry>
        </mxCell>
        <mxCell id="b0HriobLCfODPX51pv7s-13" value="&lt;font style=&quot;font-size: 20px;&quot;&gt;Bonds&lt;/font&gt;" style="rounded=1;whiteSpace=wrap;html=1;fillColor=#dae8fc;gradientColor=#7ea6e0;strokeColor=#6c8ebf;" vertex="1" parent="1">
          <mxGeometry x="-343.5" y="48" width="103" height="35" as="geometry" />
        </mxCell>
        <mxCell id="b0HriobLCfODPX51pv7s-14" value="&lt;font style=&quot;font-size: 20px;&quot;&gt;Loans&lt;/font&gt;" style="rounded=1;whiteSpace=wrap;html=1;fillColor=#f8cecc;gradientColor=#ea6b66;strokeColor=#b85450;" vertex="1" parent="1">
          <mxGeometry x="116.5" y="48" width="103" height="35" as="geometry" />
        </mxCell>
        <mxCell id="b0HriobLCfODPX51pv7s-15" value="&lt;font style=&quot;font-size: 20px;&quot;&gt;RWA&lt;/font&gt;" style="rounded=1;whiteSpace=wrap;html=1;fillColor=#d5e8d4;gradientColor=#97d077;strokeColor=#82b366;" vertex="1" parent="1">
          <mxGeometry x="586" y="48" width="103" height="35" as="geometry" />
        </mxCell>
      </root>
    </mxGraphModel>
  </diagram>
</mxfile>
